<svg width="79" height="10" viewBox="0 0 79 10" 
fill="none" 
xmlns="http://www.w3.org/2000/svg">
<path d="M75.5907 9.12001C75.0627 9.12001 74.5907 8.99201 74.1747 8.73601C73.7587 8.47201 73.4267 8.11601 73.1787 7.66801C72.9387 7.22001 72.8187 6.71601 72.8187 6.15601C72.8187 5.59601 72.9387 5.09201 73.1787 4.64401C73.4267 4.19601 73.7587 3.84001 74.1747 3.57601C74.5907 3.31201 75.0627 3.18001 75.5907 3.18001C76.0147 3.18001 76.3987 3.27201 76.7427 3.45601C77.0867 3.63201 77.3627 3.88001 77.5707 4.20001C77.7867 4.51201 77.9067 4.87601 77.9307 5.29201V7.00801C77.9067 7.41601 77.7907 7.78001 77.5827 8.10001C77.3747 8.42001 77.0987 8.67201 76.7547 8.85601C76.4107 9.03201 76.0227 9.12001 75.5907 9.12001ZM75.7707 8.10001C76.1307 8.10001 76.4427 8.01601 76.7067 7.84801C76.9787 7.68001 77.1907 7.45201 77.3427 7.16401C77.4947 6.86801 77.5707 6.53201 77.5707 6.15601C77.5707 5.76401 77.4907 5.42401 77.3307 5.13601C77.1787 4.84801 76.9667 4.62001 76.6947 4.45201C76.4307 4.28401 76.1187 4.20001 75.7587 4.20001C75.3987 4.20001 75.0827 4.28401 74.8107 4.45201C74.5387 4.62001 74.3227 4.85201 74.1627 5.14801C74.0107 5.43601 73.9347 5.76801 73.9347 6.14401C73.9347 6.52801 74.0107 6.86801 74.1627 7.16401C74.3227 7.45201 74.5387 7.68001 74.8107 7.84801C75.0907 8.01601 75.4107 8.10001 75.7707 8.10001ZM78.5907 9.00001H77.4987V7.46401L77.7027 6.07201L77.4987 4.69201V0.432007H78.5907V9.00001Z" fill="#000"/>
<path d="M70.6365 8.99999V5.67599C70.6365 5.24399 70.5005 4.88799 70.2285 4.60799C69.9565 4.32799 69.6045 4.18799 69.1725 4.18799C68.8845 4.18799 68.6285 4.25199 68.4045 4.37999C68.1805 4.50799 68.0045 4.68399 67.8765 4.90799C67.7485 5.13199 67.6845 5.38799 67.6845 5.67599L67.2405 5.42399C67.2405 4.99199 67.3365 4.60799 67.5285 4.27199C67.7205 3.93599 67.9885 3.67199 68.3325 3.47999C68.6765 3.27999 69.0645 3.17999 69.4965 3.17999C69.9285 3.17999 70.3085 3.28799 70.6365 3.50399C70.9725 3.71999 71.2365 4.00399 71.4285 4.35599C71.6205 4.69999 71.7165 5.06799 71.7165 5.45999V8.99999H70.6365ZM66.6045 8.99999V3.29999H67.6845V8.99999H66.6045Z" fill="#000"/>
<path d="M63.9329 9V3.3H65.0129V9H63.9329ZM64.4729 2.16C64.2729 2.16 64.1089 2.096 63.9809 1.968C63.8529 1.832 63.7889 1.664 63.7889 1.464C63.7889 1.272 63.8529 1.112 63.9809 0.983999C64.1089 0.847999 64.2729 0.779999 64.4729 0.779999C64.6729 0.779999 64.8369 0.847999 64.9649 0.983999C65.0929 1.112 65.1569 1.272 65.1569 1.464C65.1569 1.664 65.0929 1.832 64.9649 1.968C64.8369 2.096 64.6729 2.16 64.4729 2.16Z" fill="#000"/>
<path d="M54.0465 9V0.671997H54.8385L58.3665 6.468H57.8265L61.3545 0.671997H62.1465V9H61.0185V2.652L61.2825 2.724L58.4985 7.296H57.7065L54.9225 2.724L55.1745 2.652V9H54.0465Z" fill="#000"/>
<path d="M48.0493 9.11999C47.7293 9.11999 47.4253 9.07999 47.1373 8.99999C46.8573 8.91199 46.5973 8.79199 46.3573 8.63999C46.1173 8.47999 45.9093 8.29199 45.7333 8.07599L46.4293 7.37999C46.6373 7.63599 46.8773 7.82799 47.1493 7.95599C47.4213 8.07599 47.7253 8.13599 48.0613 8.13599C48.3973 8.13599 48.6573 8.07999 48.8413 7.96799C49.0253 7.84799 49.1173 7.68399 49.1173 7.47599C49.1173 7.26799 49.0413 7.10799 48.8893 6.99599C48.7453 6.87599 48.5573 6.77999 48.3253 6.70799C48.0933 6.62799 47.8453 6.55199 47.5813 6.47999C47.3253 6.39999 47.0813 6.29999 46.8493 6.17999C46.6173 6.05999 46.4253 5.89599 46.2733 5.68799C46.1293 5.47999 46.0573 5.20399 46.0573 4.85999C46.0573 4.51599 46.1413 4.21999 46.3093 3.97199C46.4773 3.71599 46.7093 3.51999 47.0053 3.38399C47.3093 3.24799 47.6733 3.17999 48.0973 3.17999C48.5453 3.17999 48.9413 3.25999 49.2853 3.41999C49.6373 3.57199 49.9253 3.80399 50.1493 4.11599L49.4533 4.81199C49.2933 4.60399 49.0933 4.44399 48.8533 4.33199C48.6213 4.21999 48.3573 4.16399 48.0613 4.16399C47.7493 4.16399 47.5093 4.21999 47.3413 4.33199C47.1813 4.43599 47.1013 4.58399 47.1013 4.77599C47.1013 4.96799 47.1733 5.11599 47.3173 5.21999C47.4613 5.32399 47.6493 5.41199 47.8813 5.48399C48.1213 5.55599 48.3693 5.63199 48.6253 5.71199C48.8813 5.78399 49.1253 5.88399 49.3573 6.01199C49.5893 6.13999 49.7773 6.31199 49.9213 6.52799C50.0733 6.74399 50.1493 7.02799 50.1493 7.37999C50.1493 7.91599 49.9573 8.33999 49.5733 8.65199C49.1973 8.96399 48.6893 9.11999 48.0493 9.11999Z" fill="#000"/>
<path d="M42.3418 9.12C41.8778 9.12 41.4578 9.016 41.0818 8.808C40.7138 8.592 40.4258 8.296 40.2178 7.92C40.0098 7.544 39.9058 7.108 39.9058 6.612V3.3H40.9858V6.564C40.9858 6.876 41.0378 7.148 41.1418 7.38C41.2538 7.604 41.4138 7.776 41.6218 7.896C41.8298 8.016 42.0738 8.076 42.3538 8.076C42.7778 8.076 43.1098 7.944 43.3498 7.68C43.5898 7.408 43.7098 7.036 43.7098 6.564V3.3H44.7898V6.612C44.7898 7.108 44.6858 7.544 44.4778 7.92C44.2698 8.296 43.9818 8.592 43.6138 8.808C43.2538 9.016 42.8298 9.12 42.3418 9.12Z" fill="#000"/>
<path d="M35.8569 9.11999C35.2969 9.11999 34.7929 8.98799 34.3449 8.72399C33.8969 8.45999 33.5409 8.10399 33.2769 7.65599C33.0129 7.19999 32.8809 6.69199 32.8809 6.13199C32.8809 5.57999 33.0129 5.08399 33.2769 4.64399C33.5409 4.19599 33.8969 3.83999 34.3449 3.57599C34.7929 3.31199 35.2969 3.17999 35.8569 3.17999C36.4089 3.17999 36.9089 3.31199 37.3569 3.57599C37.8129 3.83199 38.1729 4.18399 38.4369 4.63199C38.7009 5.07999 38.8329 5.57999 38.8329 6.13199C38.8329 6.69199 38.7009 7.19999 38.4369 7.65599C38.1729 8.10399 37.8129 8.45999 37.3569 8.72399C36.9089 8.98799 36.4089 9.11999 35.8569 9.11999ZM35.8569 8.07599C36.2169 8.07599 36.5369 7.99199 36.8169 7.82399C37.0969 7.65599 37.3169 7.42799 37.4769 7.13999C37.6369 6.84399 37.7169 6.50799 37.7169 6.13199C37.7169 5.76399 37.6329 5.43599 37.4649 5.14799C37.3049 4.85999 37.0849 4.63599 36.8049 4.47599C36.5329 4.30799 36.2169 4.22399 35.8569 4.22399C35.4969 4.22399 35.1769 4.30799 34.8969 4.47599C34.6169 4.63599 34.3969 4.85999 34.2369 5.14799C34.0769 5.43599 33.9969 5.76399 33.9969 6.13199C33.9969 6.50799 34.0769 6.84399 34.2369 7.13999C34.3969 7.42799 34.6169 7.65599 34.8969 7.82399C35.1769 7.99199 35.4969 8.07599 35.8569 8.07599Z" fill="#000"/>
<path d="M30.5813 9V3.3H31.6613V9H30.5813ZM31.1213 2.16C30.9213 2.16 30.7573 2.096 30.6293 1.968C30.5013 1.832 30.4373 1.664 30.4373 1.464C30.4373 1.272 30.5013 1.112 30.6293 0.983999C30.7573 0.847999 30.9213 0.779999 31.1213 0.779999C31.3213 0.779999 31.4853 0.847999 31.6133 0.983999C31.7413 1.112 31.8053 1.272 31.8053 1.464C31.8053 1.664 31.7413 1.832 31.6133 1.968C31.4853 2.096 31.3213 2.16 31.1213 2.16Z" fill="#000"/>
<path d="M25.7529 8.99999V3.29999H26.8329V8.99999H25.7529ZM26.8329 5.74799L26.4249 5.56799C26.4249 4.83999 26.5929 4.25999 26.9289 3.82799C27.2649 3.39599 27.7489 3.17999 28.3809 3.17999C28.6689 3.17999 28.9289 3.23199 29.1609 3.33599C29.3929 3.43199 29.6089 3.59599 29.8089 3.82799L29.1009 4.55999C28.9809 4.43199 28.8489 4.33999 28.7049 4.28399C28.5609 4.22799 28.3929 4.19999 28.2009 4.19999C27.8009 4.19999 27.4729 4.32799 27.2169 4.58399C26.9609 4.83999 26.8329 5.22799 26.8329 5.74799Z" fill="#000"/>
<path d="M21.8574 9.12C21.3934 9.12 20.9734 9.016 20.5974 8.808C20.2294 8.592 19.9414 8.296 19.7334 7.92C19.5254 7.544 19.4214 7.108 19.4214 6.612V3.3H20.5014V6.564C20.5014 6.876 20.5534 7.148 20.6574 7.38C20.7694 7.604 20.9294 7.776 21.1374 7.896C21.3454 8.016 21.5894 8.076 21.8694 8.076C22.2934 8.076 22.6254 7.944 22.8654 7.68C23.1054 7.408 23.2254 7.036 23.2254 6.564V3.3H24.3054V6.612C24.3054 7.108 24.2014 7.544 23.9934 7.92C23.7854 8.296 23.4974 8.592 23.1294 8.808C22.7694 9.016 22.3454 9.12 21.8574 9.12Z" fill="#000"/>
<path d="M15.2757 9.12C14.6757 9.12 14.1197 9.012 13.6077 8.796C13.0957 8.572 12.6477 8.264 12.2637 7.872C11.8877 7.48 11.5957 7.024 11.3877 6.504C11.1797 5.984 11.0757 5.428 11.0757 4.836C11.0757 4.236 11.1797 3.676 11.3877 3.156C11.5957 2.636 11.8877 2.184 12.2637 1.8C12.6477 1.408 13.0917 1.104 13.5957 0.888002C14.1077 0.664002 14.6637 0.552002 15.2637 0.552002C15.9197 0.552002 16.4957 0.664002 16.9917 0.888002C17.4877 1.112 17.9277 1.416 18.3117 1.8L17.5317 2.58C17.2677 2.284 16.9437 2.052 16.5597 1.884C16.1837 1.716 15.7517 1.632 15.2637 1.632C14.8237 1.632 14.4197 1.712 14.0517 1.872C13.6837 2.024 13.3637 2.244 13.0917 2.532C12.8197 2.82 12.6077 3.16 12.4557 3.552C12.3117 3.944 12.2397 4.372 12.2397 4.836C12.2397 5.3 12.3117 5.728 12.4557 6.12C12.6077 6.512 12.8197 6.852 13.0917 7.14C13.3637 7.428 13.6837 7.652 14.0517 7.812C14.4197 7.964 14.8237 8.04 15.2637 8.04C15.7837 8.04 16.2357 7.956 16.6197 7.788C17.0037 7.612 17.3277 7.376 17.5917 7.08L18.3717 7.848C17.9877 8.248 17.5357 8.56 17.0157 8.784C16.5037 9.008 15.9237 9.12 15.2757 9.12Z" fill="#000"/>
<path d="M0.372009 9L3.78001 0.671997H4.59601L7.99201 9H6.76801L3.97201 1.956H4.39201L1.57201 9H0.372009ZM1.99201 7.116V6.132H6.37201V7.116H1.99201Z" fill="#000"/>
</svg>
