<svg xmlns="http://www.w3.org/2000/svg" version="1.1" id="Layer_1"
	 viewBox="65.59 331.81 719.21 126.73">
  <path id="path161" d="M67.68615,458.06c-0.97143-0.64032-1.59571-1.48233-1.60242-2.16125     c-0.00301-0.3046-0.11623-0.5538-0.25161-0.5538c-0.30237,0-0.32834-1.535-0.03146-1.85837     c0.11807-0.12848,0.40414-1.06454,0.63566-2.0799c0.23155-1.01532,0.48534-2.01221,0.56401-2.21524     c0.07867-0.20306,0.16216-0.42459,0.18554-0.49228c0.02338-0.06766,0.10857-0.28918,0.1893-0.49225     c0.08073-0.20309,0.38051-1.47687,0.66615-2.8306c0.28565-1.35379,0.62342-2.65057,0.75059-2.88177     c0.12718-0.23114,0.4529-1.4361,0.72384-2.67746s0.58679-2.38135,0.70191-2.53326c0.11511-0.15189,0.46374-1.2731,0.7747-2.49152     c0.31097-1.21838,0.67522-2.35373,0.80945-2.52292c0.13422-0.1691,0.16154-0.30768,0.0607-0.30768     s-0.07316-0.13861,0.06151-0.30768c0.13469-0.1691,0.49903-1.19379,0.80968-2.27679     c0.31064-1.08304,0.64448-2.0799,0.74187-2.21524c0.0974-0.13538,0.41843-1.18503,0.71346-2.33258     c0.29501-1.14755,0.62575-2.19977,0.73497-2.33832c0.10921-0.13861,0.45274-1.13803,0.76338-2.22104     c0.31065-1.08301,0.64213-2.0799,0.73663-2.21524c0.0945-0.13538,0.413-1.02145,0.70776-1.96912     c0.29476-0.94763,0.59376-1.88913,0.66444-2.09222c0.07066-0.20306,0.09366-0.37985,0.05107-0.39291     c-0.04259-0.01233,0.04568-0.1792,0.19613-0.3692c0.15044-0.19,0.5168-1.17624,0.81413-2.19156     c0.29732-1.01532,0.68945-2.17831,0.8714-2.58447c0.18195-0.4061,0.52518-1.45837,0.76273-2.33832     c0.23756-0.87994,0.5138-1.71069,0.61388-1.84604c0.10008-0.13538,0.42228-1.07687,0.71599-2.09222     c0.29372-1.01532,0.74423-2.30688,1.00115-2.87012c0.25693-0.56326,0.59562-1.5343,0.75265-2.1579     c0.15701-0.62363,0.3778-1.19089,0.49062-1.26059c0.11281-0.06967,0.14217-0.29077,0.06525-0.49127     c-0.07692-0.20038-0.03204-0.50146,0.09969-0.66898c0.13176-0.16736,0.4828-1.13525,0.78012-2.1506     s0.68945-2.17831,0.87141-2.58447c0.18195-0.40613,0.52518-1.45837,0.76273-2.33832s0.5138-1.71069,0.61388-1.84607     c0.10008-0.13535,0.4211-1.07684,0.71336-2.09219c0.29227-1.01535,0.59885-2.01221,0.68131-2.21524     c0.08246-0.20309,0.16117-0.42459,0.17496-0.49228c0.01378-0.06769,0.09212-0.23383,0.17417-0.3692     c0.08201-0.13535,0.40342-1.13226,0.71423-2.21524c0.31081-1.08301,0.64581-2.07986,0.74444-2.21524     c0.09863-0.13535,0.41765-1.07684,0.7089-2.09219c0.29127-1.01535,0.62652-2.06757,0.74501-2.33832     s0.4509-1.32303,0.73869-2.33832c0.28779-1.01535,0.57027-1.98566,0.62772-2.15634     c0.05745-0.17056,0.11691-0.39218,0.13213-0.49225c0.01527-0.10019,0.11564-0.29282,0.22315-0.42816     c0.10751-0.13538,0.38014-0.91074,0.60583-1.72299s0.47816-1.64297,0.56107-1.84604s0.12928-0.46396,0.10304-0.57971     c-0.02625-0.11569,0.05499-0.33731,0.18051-0.49228c0.12553-0.15509,0.47365-1.16788,0.77361-2.25089     c0.29995-1.08301,0.64188-2.08844,0.75985-2.23428c0.11797-0.14597,0.44354-1.03198,0.7235-1.96915     c0.27997-0.93716,0.60896-1.92545,0.73109-2.1962s0.46124-1.37296,0.75354-2.44934s0.67294-2.18402,0.84586-2.4614     c0.17291-0.2774,0.55654-1.27966,0.85249-2.22733c0.29594-0.94763,0.63625-1.94449,0.75621-2.21524     c0.11996-0.27078,0.34377-0.99072,0.49734-1.59991c0.40938-1.62393,1.16283-2.91183,2.56012-4.37622     c2.3288-2.44055,4.52105-2.95117,7.14951-1.66516c1.12401,0.5499,2.83096,2.17404,2.83096,2.69357     c0,0.0827,0.25524,0.6795,0.5672,1.32614c0.31197,0.6467,0.83006,2.00299,1.15131,3.01401     c0.32126,1.01105,0.71552,2.05978,0.87614,2.33054c0.16063,0.27075,0.48517,1.21225,0.72121,2.09219     c0.23605,0.87994,0.54158,1.73837,0.67898,1.90756c0.1374,0.16913,0.1673,0.30768,0.06646,0.30768     s-0.07259,0.13834,0.06277,0.30768c0.13535,0.1691,0.4369,1.08304,0.67009,2.03064     c0.23319,0.94766,0.51426,1.83377,0.62459,1.96915c0.11032,0.13538,0.22414,0.3569,0.25287,0.49228     c0.02875,0.13538,0.0875,0.35687,0.13058,0.49225c0.04307,0.13538,0.31743,1.07687,0.6097,2.09219     c0.29226,1.01532,0.61443,1.95682,0.71591,2.09219c0.10148,0.13538,0.37491,1.02148,0.60761,1.96912     s0.57478,2.05527,0.76019,2.4614c0.18539,0.40613,0.58035,1.56915,0.87767,2.58447s0.64552,1.97968,0.77378,2.14294     c0.12827,0.16318,0.15876,0.41733,0.06776,0.56461c-0.091,0.14719-0.0605,0.40131,0.06773,0.56461     c0.12827,0.16318,0.47646,1.12759,0.77379,2.14294c0.29732,1.01535,0.68945,2.17831,0.8714,2.58447     c0.18195,0.40613,0.52518,1.45837,0.76273,2.33832s0.51381,1.71069,0.6139,1.84604     c0.10007,0.13538,0.43071,1.18762,0.73471,2.33835c0.304,1.1507,0.66139,2.23062,0.79422,2.39987     c0.13283,0.16907,0.15901,0.30768,0.05817,0.30768s-0.07094,0.13858,0.06645,0.30768     c0.13741,0.16907,0.43881,1.02762,0.6698,1.90756c0.23097,0.87994,0.47156,1.76605,0.53462,1.96912     s0.11694,0.42459,0.11971,0.49228c0.0027,0.06769,0.09444,0.23383,0.2037,0.3692     c0.10925,0.13535,0.44341,1.12408,0.74254,2.19717c0.29913,1.07306,0.63982,2.12534,0.75708,2.33832     c0.11726,0.21292,0.45021,1.27338,0.73991,2.35638c0.28967,1.08301,0.61293,2.0799,0.71834,2.21524     c0.10539,0.13535,0.43178,1.18027,0.72528,2.32199s0.60899,2.19397,0.70108,2.33832     c0.09207,0.14447,0.1787,0.31784,0.19244,0.38556c0.01379,0.06769,0.08623,0.28922,0.16101,0.49228     c0.07477,0.20306,0.3739,1.25531,0.6647,2.33832c0.29082,1.08304,0.62683,2.19064,0.7467,2.4614s0.45256,1.32303,0.73929,2.33832     c0.28674,1.01535,0.61903,2.06757,0.73842,2.33832c0.1194,0.27078,0.45169,1.32303,0.73842,2.33835     c0.28674,1.01532,0.62202,2.06757,0.74509,2.33832c0.12305,0.27075,0.4628,1.37836,0.75499,2.4614     c0.29221,1.08301,0.62912,2.09006,0.74873,2.23788c0.1196,0.14795,0.14726,0.33899,0.06146,0.42477     c-0.08582,0.08591-0.04512,0.29715,0.09042,0.46964c0.13554,0.17255,0.49516,1.2551,0.79916,2.40582     c0.304,1.1507,0.63374,2.20294,0.73276,2.33832c0.09903,0.13535,0.43445,1.35376,0.74538,2.70755     c0.31094,1.35376,0.65201,2.57214,0.75792,2.70755c0.10591,0.13535,0.43294,1.18762,0.72673,2.33832     s0.64906,2.23065,0.78951,2.39987c0.14043,0.1691,0.17282,0.30768,0.07199,0.30768c-0.10085,0-0.0726,0.13858,0.06276,0.30768     s0.436,1.08301,0.66811,2.03064s0.56929,2.0553,0.74933,2.4614c0.18004,0.40613,0.57593,1.51379,0.87973,2.4614     c0.30382,0.94763,0.63757,1.83646,0.74168,1.97507c0.2943,0.39191,1.20584,5.12088,1.20584,6.25565     c0,1.30743-0.48254,2.4158-1.44627,3.32211c-0.62675,0.58942-1.03484,0.74197-2.2126,0.82715     c-2.61002,0.18881-3.88206-0.93399-4.6089-4.06802c-0.21056-0.90784-0.53444-1.93106-0.71977-2.27374     c-0.18532-0.34271-0.57327-1.28638-0.86211-2.09698c-0.28882-0.81061-0.64114-1.61365-0.78296-1.78452     c-0.1418-0.17081-0.1826-0.31064-0.09065-0.31064c0.09193,0-0.00517-0.24615-0.216-0.54703     c-0.21075-0.3009-0.38318-0.69543-0.38318-0.87674c0-0.1814-0.26498-0.90436-0.58885-1.60669     c-0.32387-0.70236-0.83173-1.99695-1.12857-2.87689s-0.62355-1.71069-0.72601-1.84604     c-0.10246-0.13538-0.44283-1.07687-0.75638-2.09222c-0.31355-1.01532-0.65179-1.95679-0.75163-2.09219     c-0.09987-0.13538-0.42068-1.07687-0.71295-2.09219c-0.29227-1.01535-0.59885-2.01221-0.6813-2.21524     c-0.08246-0.20309-0.16118-0.42462-0.17496-0.49228c-0.01378-0.06769-0.09213-0.23386-0.17416-0.3692     c-0.08202-0.13535-0.40343-1.13226-0.71423-2.21524c-0.31081-1.08304-0.64479-2.0799-0.74217-2.21524     c-0.09737-0.13538-0.41844-1.18503-0.71346-2.33258s-0.62729-2.19977-0.73842-2.33832     c-0.1111-0.13858-0.44341-1.19083-0.73842-2.33832c-0.29501-1.14755-0.6273-2.19977-0.73842-2.33832     c-0.1111-0.13861-0.44217-1.18607-0.73567-2.32773c-0.2935-1.14172-0.60776-2.194-0.69834-2.33835     c-0.09058-0.14447-0.17196-0.37323-0.18082-0.50861c-0.02676-0.40836-1.39468-4.65811-1.58456-4.92279     c-0.09713-0.13535-0.43102-1.24301-0.742-2.4614s-0.65439-2.32858-0.76315-2.46713     c-0.10876-0.13861-0.43007-1.13544-0.71403-2.21524c-0.28395-1.0799-0.58625-2.12955-0.67178-2.33261     c-0.08553-0.20309-0.17437-0.42462-0.19739-0.49228c-0.02313-0.06769-0.15548-0.39999-0.29433-0.73843     c-0.13885-0.33844-0.39329-1.22455-0.56542-1.96912c-0.17212-0.7446-0.42279-1.49222-0.55701-1.66147     c-0.13422-0.16907-0.16154-0.30768-0.06069-0.30768c0.10084,0,0.07096-0.13831-0.06638-0.30768     c-0.13734-0.16907-0.49516-1.19376-0.7951-2.27679c-0.29995-1.08301-0.6316-2.07986-0.73701-2.21524     c-0.10539-0.13535-0.43301-1.18503-0.72802-2.33258s-0.62794-2.19977-0.73984-2.33832     c-0.11185-0.13858-0.44881-1.13803-0.74876-2.22107c-0.29995-1.08301-0.65775-2.10754-0.7951-2.27679     c-0.13734-0.1691-0.16722-0.30768-0.06638-0.30768c0.10085,0,0.07259-0.13858-0.06276-0.30768     c-0.13535-0.16907-0.436-1.08301-0.66811-2.03064c-0.23209-0.94763-0.57086-2.05527-0.75282-2.4614     c-0.18195-0.40613-0.57101-1.56912-0.86456-2.58447s-0.61936-1.95682-0.72402-2.09219s-0.38018-1.02148-0.61227-1.96915     c-0.23209-0.94763-0.59246-2.08691-0.8008-2.53174c-0.20836-0.44479-0.3099-0.87766-0.22566-0.96188     c0.08423-0.0842,0.05673-0.27414-0.06114-0.42197c-0.11785-0.14792-0.39894-0.93338-0.62463-1.74564     s-0.44648-1.58759-0.49065-1.72296c-0.04418-0.13538-0.06673-0.31219-0.05012-0.39291     c0.01674-0.08072-0.09634-0.30228-0.25101-0.49228c-0.15467-0.19003-0.47333-1.03589-0.70814-1.87967     c-0.23482-0.84381-0.57416-1.65637-0.7541-1.80569c-0.38039-0.3157-0.84101-0.1051-0.84101,0.38467     c0,0.18634-0.12917,0.65048-0.28705,1.03159s-0.3059,0.74826-0.32893,0.81598c-0.02314,0.06769-0.10122,0.28922-0.17371,0.49228     c-0.07249,0.20303-0.32349,1.03378-0.55775,1.84604c-0.23428,0.81226-0.57363,1.80911-0.75415,2.21527     c-0.18051,0.40613-0.55772,1.51373-0.83824,2.4614c-0.28053,0.94763-0.60954,1.94449-0.73114,2.21524     c-0.12161,0.27078-0.40853,1.21225-0.63761,2.09222c-0.22908,0.87994-0.56516,1.93219-0.74685,2.33832     c-0.1817,0.4061-0.62785,1.73154-0.99146,2.94528c-0.3636,1.21381-0.75471,2.37683-0.86913,2.58447     c-0.11443,0.20773-0.44427,1.20831-0.733,2.22366s-0.60912,1.95682-0.71199,2.09222     c-0.10287,0.13535-0.43864,1.24301-0.74615,2.4614c-0.30752,1.21838-0.6684,2.3537-0.80198,2.52292     c-0.13358,0.16907-0.16036,0.30768-0.05952,0.30768s0.07239,0.13858-0.06321,0.30765     c-0.1356,0.1691-0.43121,0.97229-0.6569,1.78455s-0.45755,1.61646-0.51525,1.78708     c-0.05772,0.17059-0.11739,0.39218-0.1326,0.49228c-0.01526,0.10016-0.11364,0.29279-0.21874,0.42816     c-0.1051,0.13535-0.43433,1.07684-0.73166,2.09219c-0.29732,1.01535-0.68945,2.17831-0.8714,2.58447     c-0.18195,0.40613-0.52518,1.45837-0.76274,2.33832c-0.23755,0.87994-0.51379,1.71069-0.61388,1.84607     c-0.10008,0.13535-0.4211,1.07684-0.71336,2.09219c-0.29226,1.01535-0.56663,1.95682-0.6097,2.09219     c-0.04308,0.13538-0.06471,0.31219-0.0481,0.39294c0.01674,0.08075-0.09412,0.30228-0.24606,0.49228     c-0.15195,0.19-0.53043,1.2316-0.84107,2.31461c-0.31065,1.08304-0.64552,2.0799-0.74415,2.21524     c-0.09863,0.13538-0.41952,1.07687-0.71307,2.09222c-0.29355,1.01532-0.68282,2.17831-0.86504,2.58447     c-0.18222,0.4061-0.46104,1.23685-0.61962,1.84604c-0.15857,0.60919-0.42487,1.32913-0.59177,1.59988     s-0.55983,1.37839-0.87315,2.4614c-0.31333,1.08304-0.6368,2.0799-0.71883,2.21527     c-0.08202,0.13535-0.15832,0.30151-0.16953,0.36917c-0.0799,0.48151-1.4343,4.60324-1.5772,4.79974     c-0.09846,0.13535-0.37335,0.96609-0.61091,1.84604s-0.58006,1.93219-0.76114,2.33832     c-0.18108,0.40613-0.5694,1.56912-0.86296,2.58447s-0.61575,1.95682-0.716,2.09219s-0.32159,0.79996-0.49189,1.47687     c-0.46689,1.8558-1.00368,3.60602-1.35883,4.43051c-0.17493,0.40613-0.51214,1.34763-0.74934,2.09222     c-0.23721,0.74457-0.51273,1.46454-0.61227,1.59988c-0.09953,0.13535-0.37575,0.85535-0.61377,1.59988     c-0.23801,0.7446-0.67901,1.90759-0.97998,2.58447s-0.62663,1.55609-0.72369,1.95374     c-0.18409,0.75418-1.52765,3.82071-2.32537,5.30743c-0.25424,0.47385-0.92828,1.22147-1.49788,1.66144     c-0.86324,0.66681-1.24755,0.79971-2.30872,0.79834c-0.84835,0-1.5168-0.1622-2.00354-0.48309L67.68615,458.06z      M230.44083,457.53934c-2.63914-0.27921-6.59512-0.96948-7.0612-1.23209c-0.21297-0.12012-1.32042-0.44833-2.461-0.72961     c-1.14058-0.28122-2.30054-0.67017-2.5777-0.86432c-0.27715-0.19421-0.65642-0.35297-0.84282-0.35297     s-1.46323-0.5578-2.83737-1.23956c-3.4706-1.72186-3.7789-1.89648-5.48341-3.10565     c-0.82945-0.58844-1.62859-1.06985-1.77586-1.06985c-0.14726,0-0.38631-0.2215-0.5312-0.49228     c-0.14491-0.27075-0.43665-0.49225-0.64833-0.49225c-0.50258,0-10.18182-9.67926-10.18182-10.18185     c0-0.21167-0.21591-0.5004-0.4798-0.64163c-0.26389-0.1413-0.62387-0.52487-0.79996-0.85254s-0.95705-1.48624-1.73546-2.57462     c-0.77841-1.08829-1.4153-2.04547-1.4153-2.12695s-0.31566-0.61121-0.70145-1.17709     c-0.93332-1.36905-3.42151-6.3537-4.00189-8.01712c-0.25465-0.72983-0.56241-1.44977-0.6839-1.59988     c-0.12151-0.15012-0.46632-1.15903-0.76627-2.24207c-0.29996-1.08301-0.63171-2.07986-0.73726-2.21524     c-0.10555-0.13535-0.43515-1.35376-0.73248-2.70755c-0.29732-1.35379-0.6568-2.70312-0.79883-2.9986     s-0.19681-0.69733-0.1217-0.89304c0.0751-0.19568,0.04236-0.45239-0.07274-0.5704     c-0.40387-0.41412-0.84119-6.42001-0.84903-11.6601c-0.00764-5.11795,0.46559-11.69983,0.85869-11.94275     c0.10553-0.06525,0.13382-0.34058,0.06287-0.61194s-0.0177-0.63123,0.11835-0.79971     c0.13605-0.16861,0.32346-0.80481,0.41647-1.414c0.26155-1.71292,0.87631-4.22867,1.23308-5.04587     c0.17729-0.4061,0.50914-1.40302,0.73743-2.21524c0.39316-1.39893,0.88618-2.59149,2.23866-5.41507     c0.32422-0.67688,0.81293-1.72913,1.08603-2.33832c1.24826-2.78458,3.67297-6.59583,6.28299-9.87582     c1.08301-1.36102,2.19208-2.76941,2.46458-3.12976c0.27252-0.36035,1.08604-1.22272,1.80786-1.91632     c0.72182-0.69363,1.44252-1.52219,1.60156-1.84122c0.15906-0.319,0.51003-0.69299,0.77994-0.83102     c0.26991-0.13809,1.09845-0.82709,1.84119-1.53119c1.804-1.71014,5.21741-4.55429,6.48253-5.40143     c0.56178-0.37616,1.90753-1.30737,2.99054-2.06934c1.08302-0.76196,2.30141-1.55878,2.70755-1.77072     c0.40613-0.21191,1.45837-0.78391,2.33832-1.27115c0.87996-0.48724,2.09836-1.11377,2.70755-1.3923     s1.66302-0.77643,2.34186-1.10641c0.67883-0.32996,1.3723-0.59991,1.54106-0.59991c0.16875,0,0.77635-0.21686,1.35023-0.48199     c1.05383-0.48685,3.90764-1.28754,5.72006-1.60492c0.5415-0.09476,1.09532-0.25848,1.2307-0.36362     c1.2193-0.94724,15.65437-0.96115,17.72206-0.01724c0.27077,0.12357,1.43378,0.45956,2.58447,0.74655     s2.53523,0.72406,3.07674,0.97131c4.42859,2.02194,7.4881,3.65833,9.13458,4.88559     c2.48621,1.85315,5.62106,5.14627,6.81168,7.15555c0.95233,1.60712,1.8989,4.0654,1.8989,4.93152     c0,0.26703,0.11075,0.55399,0.24612,0.63766c0.30951,0.19122,0.3255,2.26022,0.01895,2.44968     c-0.12494,0.0773-0.29813,0.46338-0.38483,0.85806c-0.19946,0.90826-1.26056,1.98425-1.95676,1.98425     c-0.29291,0-0.65298,0.12036-0.80014,0.26758c-0.19272,0.19275-0.3139,0.19275-0.43298,0     c-0.09094-0.14719-0.42725-0.26758-0.74731-0.26758c-0.78784,0-1.96851-1.03979-2.75452-2.42581     c-0.71918-1.26828-3.9577-4.71234-4.43103-4.71234c-0.16586,0-0.39017-0.14694-0.49844-0.32666     c-0.44003-0.73032-4.27594-3.34476-6.35031-4.32822c-1.2184-0.57764-2.65833-1.25961-3.19983-1.51547     c-1.09543-0.51758-3.12073-1.06259-5.53815-1.49036c-2.21042-0.39111-9.35448-0.55917-9.68581-0.22794     c-0.14201,0.14203-0.59607,0.26001-1.00897,0.26215c-0.98676,0.00491-5.29959,0.91898-5.64795,1.19681     c-0.14943,0.11914-0.93629,0.40146-1.74855,0.62723c-1.40631,0.3909-3.96753,1.47446-5.29201,2.23883     c-0.33844,0.19519-1.11378,0.60934-1.72298,0.92004s-1.92035,1.11569-2.91367,1.78882     c-0.99332,0.67316-1.98985,1.33469-2.21451,1.47006c-1.07892,0.65012-4.6021,3.48184-6.34225,5.09753     c-1.06931,0.99283-2.35956,2.11295-2.86722,2.48917c-0.50766,0.37619-0.92302,0.7948-0.92302,0.93024     c0,0.13538-0.80531,1.15433-1.78957,2.26425c-1.76118,1.98636-4.11781,4.94693-4.11781,5.17343     c0,0.06351-0.60304,1.00638-1.34009,2.095c-0.73705,1.08859-1.58206,2.56793-1.87784,3.28745     c-0.29578,0.71945-0.84698,1.97269-1.22493,2.78494c-1.51271,3.25113-1.90654,4.24094-2.20357,5.53815     c-0.17047,0.7446-0.40013,1.46857-0.51035,1.60886s-0.44006,1.63556-0.733,3.32288s-0.62991,3.28934-0.74884,3.56009     c-0.43346,0.98685-0.68465,8.09195-0.43983,12.44104c0.13232,2.35068,0.33102,4.38977,0.44159,4.53134     c0.11057,0.14151,0.27451,0.92197,0.36435,1.73422c0.1945,1.75864,0.80128,4.38663,1.25027,5.41507     c0.17729,0.40613,0.50581,1.40302,0.73003,2.21524c0.22421,0.81229,0.47603,1.64297,0.5596,1.84607     c0.08357,0.20306,0.16942,0.42459,0.19077,0.49225c0.21739,0.68918,2.69717,5.77802,3.6618,7.5145     c0.71346,1.28433,2.00194,3.17462,3.03235,4.44867c0.44925,0.55545,0.8168,1.1427,0.8168,1.30502     c0,0.39322,8.55792,8.96674,9.38672,9.40381c0.35681,0.18805,1.3219,0.81421,2.14462,1.3912     c1.89557,1.32938,4.41609,2.64288,6.3138,3.29022c0.81227,0.27707,1.80913,0.64575,2.21526,0.81927     c0.40614,0.17352,1.73529,0.50705,2.95369,0.74124c1.21838,0.23404,2.43678,0.52475,2.70753,0.64581     c2.00352,0.89566,13.55682,0.88345,14.76839-0.01477c0.13538-0.10043,0.96529-0.33701,1.84422-0.5257     c3.15369-0.67703,10.89162-5.14581,12.63423-7.29654c0.2468-0.3046,0.58105-0.55383,0.74274-0.55383     c0.16171,0,1.51053-1.23096,2.99738-2.73541c3.01523-3.05106,4.51947-4.15649,5.65598-4.15649     c0.42023,0,0.89227-0.12823,1.04901-0.28491c0.19583-0.19595,0.38443-0.20676,0.60303-0.03473     c0.17496,0.13757,0.69998,0.32285,1.16675,0.41156c1.29791,0.2467,1.96591,0.8096,2.61496,2.20361     c0.65897,1.41528,0.73837,2.25565,0.31067,3.28806c-0.15787,0.3811-0.29633,0.77042-0.30768,0.8652     c-0.01132,0.09476-0.15909,0.31076-0.32831,0.48001c-0.16922,0.16907-0.30768,0.45151-0.30768,0.62732     c0,0.39923-7.79758,8.24548-8.66043,8.71445c-0.3479,0.18906-1.44913,0.97137-2.4472,1.73837     c-2.94998,2.26706-7.72556,4.85663-10.79881,5.85571c-0.87994,0.28607-1.82144,0.62515-2.09218,0.75351     c-2.47839,1.1749-12.08159,1.82156-17.90399,1.20563V457.53934z M566.77966,455.87421     c-0.98584-0.28055-2.23853-1.74567-2.67419-3.12769c-0.38373-1.21744-0.38361-1.79535,0.0025-8.7673     c0.22693-4.10519,0.48389-10.15445,0.57111-13.44284c0.08716-3.28839,0.25159-6.03632,0.36511-6.10648     c0.35388-0.21881,0.25702-12.995-0.10114-13.35324c-0.44037-0.44043-0.42889-58.22623,0.01233-58.66678     c0.19244-0.19247,0.29767-1.20422,0.30084-2.89279c0.00494-2.41006,0.5188-8.54575,0.88654-10.57681     c0.22791-1.25928,1.27612-2.9512,2.16345-3.49228c0.82501-0.50311,1.75433-0.59009,2.65326-0.24829     c0.77844,0.29596,6.48407,6.50195,7.38123,8.0285c0.39783,0.67688,1.15674,1.89526,1.68658,2.70752     c0.52979,0.81226,1.13672,1.86044,1.34869,2.32932s0.53534,1.02271,0.71844,1.23071     c0.18317,0.20801,0.5426,0.76587,0.79877,1.23972c0.25616,0.47382,1.099,1.82483,1.87292,3.00223s1.4071,2.20633,1.4071,2.2865     c0,0.08023,0.3877,0.72141,0.86151,1.42499c0.47382,0.70361,0.86151,1.41919,0.86151,1.59021     c0,0.17108,0.1142,0.31094,0.25385,0.31094c0.13959,0,0.32458,0.1937,0.41101,0.43076     c0.08636,0.23679,0.63678,1.17252,1.22296,2.0791c0.58624,0.90656,1.06586,1.72842,1.06586,1.82626     c0,0.09796,0.66461,1.15485,1.47687,2.34891c0.81226,1.194,1.47687,2.25552,1.47687,2.35889     c0,0.10339,0.38763,0.73318,0.86145,1.39963c0.47388,0.66647,0.86151,1.30258,0.86151,1.41364     c0,0.11102,0.53241,0.94998,1.18317,1.86426s1.39838,2.04794,1.66144,2.51923c0.26306,0.47125,1.05981,1.71652,1.77057,2.76724     c0.71069,1.05069,1.29218,1.98206,1.29218,2.06964c0,0.08762,0.60919,1.08423,1.35382,2.21478     c0.74457,1.13055,1.35376,2.11804,1.35376,2.19443c0,0.07629,0.44403,0.79272,0.98669,1.59189     c0.54272,0.79916,1.09991,1.70688,1.23822,2.01712c0.13831,0.31027,0.74487,1.33948,1.34802,2.28708     c0.60315,0.94763,1.20947,1.98059,1.34735,2.29544c0.13782,0.31485,0.58246,1.05475,0.98804,1.64426     s0.73749,1.15485,0.73749,1.25641c0,0.10168,0.35999,0.71863,0.79993,1.37137c0.8551,1.26852,1.50549,1.46039,2.00549,0.59161     c0.14917-0.25922,0.93585-1.49612,1.74811-2.7486c2.1908-3.3782,3.23999-5.09717,3.40564-5.57959     c0.08148-0.23679,0.26221-0.43076,0.40179-0.43076s0.25391-0.14081,0.25391-0.31296c0-0.17206,0.43988-0.97516,0.97754-1.78455     c0.53772-0.80936,0.98077-1.56049,0.98456-1.66925c0.00494-0.1088,0.50543-0.96127,1.11462-1.8945s1.1076-1.74695,1.1076-1.80823     c0-0.06131,0.44385-0.81485,0.98627-1.67453c0.54248-0.85968,1.11926-1.84,1.28174-2.17844s0.66895-1.21274,1.12543-1.94284     s0.9317-1.56082,1.05609-1.84604c0.12433-0.28522,0.66937-1.22195,1.21118-2.08163     c0.54181-0.85971,0.98505-1.61328,0.98505-1.67453c0-0.06131,0.47546-0.85321,1.05658-1.75983     c0.58112-0.90656,1.18951-1.92526,1.35205-2.2637c0.16248-0.33841,0.73938-1.31873,1.2818-2.17844     c0.54248-0.85968,0.98627-1.61234,0.98627-1.67255c0-0.0603,0.55383-0.93018,1.23071-1.93329     c0.67688-1.00308,1.23071-1.89737,1.23071-1.98721s0.60919-1.03284,1.35376-2.09543s1.35376-1.99405,1.35376-2.06998     c0-0.07581,0.5838-0.99323,1.29724-2.03854s1.54944-2.33118,1.85773-2.85745c0.30829-0.52631,1.16443-1.75937,1.90259-2.74014     c0.73816-0.98074,1.3421-1.84503,1.3421-1.92062c0-0.07556,0.60919-1.02692,1.35376-2.11414     c0.74463-1.08719,1.35382-2.04291,1.35382-2.12375c0-0.08099,0.63733-1.05322,1.41626-2.16077     c0.77893-1.10751,1.57074-2.45673,1.75958-2.99823c0.49725-1.42599,1.39246-2.4881,2.58282-3.06439     c1.82867-0.88522,3.44275-0.54367,5.29333,1.12021c1.56995,1.4115,1.89099,2.42447,1.59119,5.02094     c-0.11719,1.01532-0.17841,15.7468-0.13586,32.7366c0.08124,32.45422-0.28107,73.45859-0.65338,73.93246     c-0.12042,0.15335-0.284,1.44168-0.36334,2.86316c-0.07953,1.42145-0.32214,3.09836-0.53949,3.7265     c-0.42438,1.22693-1.91681,2.91925-2.57434,2.91925c-0.22101,0-0.5235,0.12158-0.67194,0.26996     c-0.51001,0.50998-2.6922,0.30124-3.64923-0.34909c-2.30414-1.56567-2.66675-2.97455-2.34308-9.1033     c0.12994-2.46307,0.31342-11.98251,0.40741-21.15433s0.26465-16.67596,0.37921-16.67596     c0.3053,0,0.26764-27.74805-0.0379-27.93689c-0.1524-0.09427-0.24615-2.28656-0.24615-5.75894     c0-3.08377-0.07312-8.28195-0.16248-11.55157c-0.13586-4.9718-0.21704-5.89926-0.49707-5.6669     c-0.33881,0.28122-2.54034,3.3457-2.54034,3.53616c0,0.05685-0.66455,1.09842-1.47681,2.3147     c-0.81232,1.21634-1.47687,2.28226-1.47687,2.36877c0,0.08643-0.42816,0.78409-0.95142,1.5502     c-0.94586,1.3848-2.7135,4.32706-4.06134,6.7601c-0.38794,0.70026-0.91406,1.53854-1.16919,1.86285     s-0.46698,0.7132-0.47083,0.86417c-0.0025,0.15088-0.44684,0.93668-0.98456,1.74603     c-0.53766,0.80939-0.9776,1.61243-0.9776,1.78455c0,0.17206-0.10925,0.31296-0.24292,0.31296s-0.4043,0.38644-0.60162,0.85876     c-0.19739,0.47235-0.69733,1.35071-1.11096,1.95193c-0.4137,0.60123-0.75208,1.19623-0.75208,1.32214     c0,0.12601-0.27362,0.63217-0.60803,1.12497c-0.33441,0.49277-0.95935,1.53278-1.38879,2.31113     c-0.42938,0.77835-1.15271,1.98047-1.60724,2.67136c-0.45459,0.69089-0.82654,1.34201-0.82654,1.44699     c0,0.10486-0.44299,0.83987-0.98456,1.63318c-0.5415,0.7933-0.9845,1.51904-0.9845,1.61273     c0,0.09378-0.60919,1.07654-1.35382,2.18411c-0.74457,1.10754-1.35376,2.07748-1.35376,2.15543     c0,0.1553-2.38983,3.79346-4.61584,7.02682c-0.77802,1.13016-1.53906,2.27252-1.69122,2.53867     c-0.58325,1.01996-1.75177,1.99072-3.26727,2.71423c-1.89227,0.90338-3.12592,0.85663-5.1535-0.19519     c-1.33893-0.69467-4.47101-3.80133-4.47101-4.43478c0-0.18658-0.11346-0.33926-0.25226-0.33926s-0.36176-0.28815-0.49567-0.64023     c-0.13391-0.35214-0.62958-1.22205-1.1015-1.93307c-0.47198-0.71106-0.85815-1.37024-0.85815-1.46484     c0-0.09454-0.58508-1.08002-1.30011-2.18979c-0.71515-1.10974-1.56451-2.51614-1.88751-3.12534     c-0.32306-0.60919-0.79022-1.3718-1.03821-1.69464c-0.24792-0.32288-0.45087-0.68784-0.45087-0.81107     c0-0.12332-0.55383-1.0448-1.23065-2.04788c-0.67688-1.00311-1.23071-1.89032-1.23071-1.9715     c0-0.08124-0.44574-0.80402-0.99042-1.60614c-0.54474-0.80215-1.06049-1.65445-1.14606-1.89407     c-0.08569-0.23953-0.85834-1.46014-1.71716-2.71234c-0.85883-1.25217-1.56146-2.36017-1.56146-2.46219     c0-0.1019-0.3877-0.7308-0.86151-1.39722c-0.47382-0.66647-0.86151-1.3465-0.86151-1.51126     c0-0.16464-0.16614-0.36331-0.3692-0.44122c-0.20306-0.078-0.3692-0.26093-0.3692-0.40668     c0-0.14572-0.55383-1.08569-1.23071-2.08881c-0.67682-1.00308-1.23065-1.88919-1.23065-1.96912     c0-0.07999-0.55383-0.96603-1.23071-1.96912c-0.67688-1.00311-1.23071-1.88547-1.23071-1.96078     c0-0.11792-0.95447-1.60837-2.44879-3.82352c-0.22815-0.33844-0.48804-0.8114-0.57721-1.05099     c-0.08911-0.2395-0.60779-1.09192-1.15253-1.89407c-0.54474-0.80212-0.99042-1.51874-0.99042-1.5925     c0-0.29623-2.22699-3.58505-2.42761-3.58505c-0.40778,0-0.52063,1.86261-0.52338,8.63538     c-0.0025,3.73416-0.06055,6.84723-0.13123,6.91794c-0.19739,0.19739-0.15259,21.11188,0.04578,21.43301     c0.26562,0.42972,0.24445,39.37985-0.02216,39.79337c-0.125,0.19421-0.19989,1.53952-0.16638,2.9895     c0.03351,1.44992-0.04944,2.84167-0.18433,3.09271c-0.13489,0.25107-0.36816,2.67172-0.51837,5.37927     c-0.31818,5.73645-0.46326,6.51959-1.42999,7.72119c-1.20862,1.50229-2.15546,2.00473-3.72491,1.97681     c-0.75842-0.01233-1.63202-0.0965-1.94135-0.1846L566.77966,455.87421z M314.06415,453.76535     c-2.04388-0.91226-2.9679-2.92114-3.20773-6.97379c-0.09811-1.65836-0.22049-3.01523-0.27191-3.01523     c-0.05139,0-1.33862,1.10596-2.8605,2.45764c-3.01169,2.67499-4.43271,3.65244-7.4437,5.12006     c-2.96951,1.44745-3.96228,1.65256-7.99954,1.65256c-2.96063,0-3.77881-0.08221-4.79971-0.48203     c-3.68588-1.44366-6.14801-3.81885-8.04764-7.76367c-0.48892-1.01535-1.07266-2.51065-1.29715-3.32291     c-0.22452-0.81229-0.51556-1.69839-0.64682-1.96915c-0.23184-0.47833-1.42371-6.25208-1.55359-7.52612     c-0.03558-0.34882-0.13107-0.7417-0.21225-0.87302c-0.21713-0.35138-0.91812-6.6369-0.91846-8.23581     c-0.00018-0.75583-0.0639-1.4379-0.14166-1.51562c-0.07776-0.07779-0.12912-2.55743-0.1142-5.51041     c0.02719-5.36823,0.73044-12.892,1.26529-13.53644c0.12619-0.15213,0.15976-0.4581,0.07462-0.68002     c-0.08517-0.22202-0.04385-0.54059,0.09183-0.7081c0.13568-0.16736,0.42654-1.18234,0.64636-2.25519     c0.21982-1.07291,0.54913-2.2359,0.73184-2.58447c0.18268-0.34863,0.50705-0.95685,0.72079-1.35162     c0.99091-1.83008,4.44769-1.82303,5.21387,0.00986c0.19284,0.46152,0.36484,0.92017,0.38223,1.01926     c0.01749,0.09918,0.16068,0.33548,0.31839,0.52536c0.20572,0.24768,0.33047,4.00351,0.4415,13.29153     c0.14474,12.10867,0.41266,17.43448,0.93604,18.60751c0.12079,0.27075,0.45831,1.98758,0.75006,3.81519     c0.29178,1.82758,0.62332,3.5444,0.73685,3.81516c0.11346,0.27078,0.45819,1.32303,0.76599,2.33835     c0.60803,2.00562,1.28366,3.23624,2.28616,4.16397c1.27267,1.1777,4.38077,0.94333,6.87256-0.51819     c0.64902-0.38071,1.28589-0.69214,1.41531-0.69214s0.23529-0.10779,0.23529-0.23972c0-0.13196,0.327-0.40891,0.72665-0.61563     c0.94275-0.48682,5.67297-5.21515,5.67297-5.66995c0-0.19174,0.22153-0.4671,0.49228-0.61203     c0.27078-0.14496,0.49228-0.38315,0.49228-0.52948c0-0.14621,0.37454-0.7793,0.83231-1.40665     c0.72546-0.9942,2.14798-3.76492,3.4556-6.73062c0.45615-1.03461,0.51889-1.87384,0.90698-12.13205     c0.15369-4.06128,0.36172-7.49496,0.46234-7.63034c0.10065-0.13538,0.25323-1.96298,0.33908-4.06131     c0.17676-4.32013,0.55618-6.08426,1.5831-7.36072c1.19324-1.48312,2.15076-1.99258,3.74509-1.99258     c1.09393,0,1.60739,0.1366,2.31287,0.61533c0.49869,0.33844,0.98489,0.61603,1.08041,0.61691     c0.16919,0.00247,0.36166,0.29346,1.8526,2.80988c0.67386,1.13739,0.73254,1.45389,0.95895,5.16898     c0.35413,5.81104-0.06186,13.22086-0.83151,14.81198c-0.13748,0.28421-0.22311,0.72723-0.19037,0.98456     c0.03278,0.25726-0.00516,0.63394-0.08438,0.83701c-0.07919,0.20306-0.32852,1.42145-0.55405,2.70755     s-0.46948,2.50449-0.54211,2.70755c-0.07263,0.20309-0.10959,0.77328-0.08212,1.26721     c0.02747,0.4939-0.06851,0.97116-0.21326,1.06061c-0.34,0.21021-0.35574,5.46234-0.01697,5.67172     c0.15625,0.0965,0.24612,3.19754,0.24612,8.49182s-0.08987,8.39526-0.24612,8.49182     c-0.13538,0.08368-0.24615,0.48141-0.24615,0.88394c0,1.5683-1.422,3.72391-3.00296,4.55215     c-0.82944,0.43454-2.54547,0.4342-3.51974,0V453.76535z M452.14859,453.37582c-0.08368-0.13538-0.45459-0.24615-0.82431-0.24615     c-1.94702,0-5.4938-1.44345-7.72244-3.14285c-1.37402-1.04776-4.1738-4.7038-4.7771-6.23813     c-0.23358-0.59399-0.55945-1.30148-0.72424-1.57224c-0.16467-0.27075-0.48837-1.26764-0.71915-2.21524     c-0.2309-0.94763-0.52255-1.84903-0.64841-2.00314c-0.27264-0.33383-1.19604-6.4165-1.19766-7.8895     c0-0.56735-0.11938-1.10458-0.26364-1.19382c-0.14523-0.08981-0.24219-0.78317-0.2171-1.55289     c0.02484-0.76489-0.05072-1.61218-0.16812-1.88293c-0.34879-0.80402-0.272-22.93106,0.08072-23.28384     c0.17084-0.17081,0.2341-0.59534,0.15091-1.0116c-0.07901-0.39447-0.02686-0.95981,0.11591-1.25629     c0.14276-0.29651,0.38873-1.42523,0.54681-2.50821c0.38467-2.63531,1.60977-5.22244,2.89478-6.11288     c1.97238-1.36685,4.45715-0.68549,5.71979,1.56845l0.61536,1.09848l-0.04062,6.48956     c-0.02686,4.28366-0.13144,6.58032-0.30768,6.75653c-0.32217,0.32217-0.37866,12.86972-0.05884,13.06741     c0.11444,0.07086,0.28287,1.52692,0.37424,3.23593c0.22546,4.21616,0.83835,9.96906,1.12637,10.57138     c0.12946,0.27075,0.41113,1.20901,0.62589,2.08505c0.75772,3.09012,2.33405,5.50928,4.16867,6.39737     c1.40152,0.67844,4.08365,0.90628,6.09824,0.51791c2.03015-0.39136,5.59793-2.15662,7.48093-3.70135     c2.56271-2.10251,4.9502-5.57687,5.67099-8.25269c0.20355-0.75601,0.33261-2.57794,0.33438-4.72366     c0.00247-1.92114,0.09625-3.55066,0.21045-3.62125c0.11423-0.07037,0.27585-1.79358,0.35941-3.82907     c0.19568-4.76706,0.86166-11.54861,1.20178-12.23764c0.14548-0.29483,0.20972-0.82358,0.14252-1.17505     c-0.06717-0.35144-0.04086-0.68927,0.05859-0.7507c0.09943-0.06152,0.25546-0.91721,0.34668-1.9017     c0.17944-1.93594,0.595-4.51935,0.82242-5.11288c0.07779-0.20309,0.16049-0.42459,0.18387-0.49228     c0.02463-0.06769,0.10757-0.28918,0.18707-0.49228c0.0795-0.20306,0.26657-0.76694,0.41565-1.25305     c0.37192-1.21298,2.32861-3.11935,3.53528-3.44427c2.82379-0.76038,5.97534,1.5079,6.44098,4.63577     c0.09573,0.64304,0.28333,1.30194,0.4169,1.46426c0.13367,0.16223,0.25424,1.0484,0.26828,1.96915     c0.04944,3.25296-0.31265,12.77628-0.55969,14.71942c-0.62576,4.92142-1.03714,7.60818-1.22083,7.97305     c-0.10953,0.21756-0.44409,1.55869-0.74344,2.98016c-0.29932,1.42145-0.67154,2.73996-0.82709,2.92996     c-0.15558,0.19-0.24805,0.35617-0.20554,0.3692c0.08023,0.0246,0.05957,0.10608-0.44324,1.74667     c-0.18707,0.61014-0.37207,3.74133-0.48663,8.23398c-0.12921,5.07095-0.26941,7.27759-0.46616,7.34317     c-0.15482,0.05167-0.28296,0.27838-0.285,0.504c-0.01477,1.57138-1.39673,3.54306-2.8822,4.11038     c-2.21893,0.84741-4.42917-0.04678-5.47961-2.21661c-0.29666-0.61285-0.66705-1.11429-0.823-1.11429     c-0.15607,0-0.83838,0.36752-1.51645,0.81677c-1.99356,1.32083-3.73358,2.32404-4.35004,2.50809     c-0.31619,0.09451-0.94162,0.38199-1.38983,0.63916c-0.93512,0.5365-4.24234,1.45105-5.24731,1.45105     c-0.37265,0-0.746,0.11075-0.82965,0.24615c-0.08493,0.13708-1.22842,0.24615-2.5845,0.24615     c-1.35605,0-2.49963-0.10904-2.58447-0.24615H452.14859z M752.56226,453.38074c-0.20306-0.11667-1.14453-0.38748-2.09216-0.60181     c-0.94763-0.21436-2.66449-0.85992-3.81519-1.43478c-1.79706-0.89771-2.50891-1.46475-5.0459-4.01941     c-2.65118-2.66965-3.02191-3.1517-3.62042-4.70743c-0.93726-2.43631-1.67157-6.95026-1.67157-10.27539     c0-2.73294,0.61322-7.04184,1.3653-9.59375c0.19666-0.6676,0.35773-1.63025,0.35773-2.13919s0.09546-0.98441,0.2124-1.05661     c0.11694-0.07211,0.35242-0.66025,0.52362-1.30676c0.37866-1.43036,2.97748-6.91364,3.99255-8.42404     c0.40479-0.60223,0.82593-1.3222,0.93585-1.59988c0.25659-0.64807,2.94867-4.25101,3.78656-5.06772     c0.35242-0.34357,0.64075-0.74017,0.64075-0.88141c0-0.65851,5.82092-5.59167,8.31592-7.04764     c1.32776-0.77484,6.58392-3.38409,6.81702-3.38409c0.08514,0,0.61945-0.21146,1.18738-0.46997     c1.35217-0.61542,4.48303-1.25299,6.15302-1.25299c2.10474,0,2.05157,0.17944,2.22723-7.50729     c0.22913-10.02237,0.66077-19.8765,0.89508-20.4296c0.11475-0.27078,0.3335-2.98447,0.48627-6.03043     c0.29285-5.84024,0.67688-10.45898,0.92102-11.07629c0.0802-0.20306,0.16345-0.64612,0.18457-0.98456     c0.02216-0.33844,0.10931-0.78149,0.19568-0.98456c0.08643-0.20306,0.37323-1.83893,0.63751-3.63522     c0.53009-3.60333,0.94073-4.45963,2.55573-5.32935c2.10565-1.13397,4.46838,0.80731,5.10144,4.19153     c0.14911,0.79758,0.34094,2.64493,0.42627,4.10519c0.08514,1.46027,0.2486,2.71289,0.36298,2.78357     c0.27258,0.16837,0.27136,5.02231-0.00244,5.02231c-0.11523,0-0.27496,1.46762-0.35522,3.26135     c-0.46405,10.37231-0.73181,15.36469-0.84149,15.69141c-0.06818,0.20306-0.11615,1.69202-0.10681,3.30881     c0.01233,1.96451-0.08173,3.05896-0.28113,3.29926c-0.4397,0.52988-0.42865,42.95728,0.01233,43.39716     c0.39209,0.39212,0.45026,26.42587,0.05957,26.6673c-0.13538,0.08368-0.24615,0.41873-0.24615,0.74457     c0,1.42474-1.64093,3.65555-3.14807,4.27985c-1.02148,0.42313-3.05347,0.38266-3.94537-0.07852     c-0.80347-0.41547-1.83716-1.55222-2.39813-2.63705c-0.2016-0.38989-0.492-0.70892-0.64526-0.70892     c-0.15332,0-0.84259,0.42868-1.53204,0.9527c-1.33972,1.01828-1.71735,1.23981-3.98267,2.33597     c-0.80035,0.38733-1.77136,0.85953-2.15784,1.04947c-0.875,0.42993-4.24371,1.32309-4.99036,1.32309     c-0.30499,0-0.62292,0.11078-0.7066,0.24615c-0.18677,0.30225-6.24384,0.3067-6.7688,0.00491L752.56226,453.38074z      M759.39209,442.93677c0.84576-0.1814,1.67645-0.43692,1.84607-0.56772c0.16956-0.13071,0.78668-0.42371,1.3714-0.65082     c1.39801-0.54309,3.26031-1.95694,5.11908-3.88638c1.41418-1.46799,3.54028-4.18591,3.54028-4.52582     c0-0.08441,0.41534-0.78055,0.92303-1.54712l0.92303-1.39371l-0.08002-7.26288     c-0.04407-3.99457-0.15479-10.80728-0.24615-15.13937l-0.16614-7.87646l-0.61536-0.08688     c-0.88452-0.12482-2.96381,0.38663-4.41162,1.08505c-0.68597,0.33093-1.35815,0.60168-1.49377,0.60168     c-0.72076,0-6.40015,3.41602-7.11853,4.28156c-0.18042,0.21735-0.43811,0.39511-0.57288,0.39511     c-0.7041,0-5.64087,6.0282-7.06714,8.62958c-1.07776,1.96573-2.96552,5.85721-2.96552,6.11322     c0,0.15234-0.2124,0.74664-0.47217,1.32053c-0.45996,1.01636-1.05176,3.23822-1.39252,5.22781     c-0.09277,0.5415-0.27264,1.11594-0.39978,1.27655c-0.33209,0.41956-0.3537,5.58817-0.02631,6.27487     c0.1499,0.31415,0.45636,1.19659,0.68115,1.961c0.72675,2.47119,3.75958,5.21036,6.47955,5.85223     c1.38885,0.32773,4.42322,0.28723,6.14423-0.08197L759.39209,442.93677z M375.53104,452.83566     c-0.83926-0.28442-2.26233-1.97324-2.77618-3.29462c-0.57452-1.47733-0.10687-44.51758,0.49991-46.00867     c0.11017-0.27075,0.31052-2.11951,0.44519-4.10834c0.28305-4.1795,0.59177-5.05139,2.22598-6.28616     c2.43268-1.83807,5.43335-0.24707,6.2276,3.30197c0.16379,0.7319,0.38617,1.38535,0.4942,1.45209     c0.108,0.06668,0.13348,0.43591,0.05658,0.8204c-0.07886,0.39429-0.02164,0.772,0.13116,0.86646     c0.36685,0.22672,0.38116,14.0712,0.01477,14.29764c-0.16281,0.10068-0.24567,1.65335-0.22736,4.26044     c0.01575,2.2562-0.0336,4.26828-0.10989,4.47131c-0.07629,0.20306-0.16785,6.3504-0.2034,13.66077     c-0.06281,12.89969-0.07971,13.32019-0.57431,14.263c-0.28027,0.5343-0.90808,1.29401-1.39514,1.6882     c-0.72745,0.58878-1.16379,0.73209-2.44406,0.80276c-0.85721,0.04724-1.92148-0.03693-2.36505-0.18729V452.83566z      M669.03894,452.54901c-0.65424-0.31683-1.34357-0.84195-1.5318-1.1669c-1.12036-1.93414-1.18628-2.25034-1.20172-5.75977     c-0.02759-6.25983,0.65851-29.53223,0.87756-29.7706c0.11816-0.12851,0.21368-0.90396,0.21216-1.72299     c-0.00494-2.17587,0.97906-13.21921,1.22827-13.79611c0.11694-0.27075,0.27539-1.35092,0.35199-2.40039     c0.16766-2.29578,0.5567-3.31091,1.60785-4.19537c1.33936-1.12698,3.27887-0.85669,4.43549,0.61819     c0.52808,0.67343,1.22815,3.36874,1.23602,4.75916c0.0025,0.4129,0.1073,0.85593,0.23334,0.98453     c0.49115,0.50156,0.72156,13.36072,0.45172,25.21701c-0.14624,6.43042-0.34283,11.74704-0.43677,11.81473     c-0.09399,0.06769-0.23779,2.67062-0.31989,5.7843c-0.16907,6.41357-0.41125,7.68005-1.70184,8.89627     c-1.5083,1.42148-3.479,1.68869-5.44214,0.73795H669.03894z M330.32031,452.49216     c-0.53552-0.19617-1.23352-0.60068-1.55115-0.89908c-0.67929-0.63803-1.53653-2.46805-1.53653-3.27997     c0-0.31323-0.11078-0.638-0.24615-0.72165c-0.31378-0.19394-0.33463-12.26785-0.02216-12.86414     c0.38403-0.73297,0.76593-8.099,1.0304-19.87247c0.14182-6.31488,0.35614-11.42584,0.48456-11.55627     c0.12665-0.12875,0.23022-1.92331,0.23022-3.98816c0-2.35452,0.10928-4.01108,0.29309-4.44281     c0.41501-0.97473,1.19446-1.79611,1.70441-1.79611c0.23917,0,0.50333-0.11075,0.58698-0.24615     c0.40503-0.65533,2.63852,0.26486,3.50882,1.44568c0.3053,0.41428,0.73257,1.55994,0.94943,2.54593     c0.21689,0.98596,0.49319,1.98505,0.61404,2.22012c0.12082,0.23508,0.2197,0.65045,0.2197,0.923     c0,0.57239,0.0069,0.57443,0.84988,0.25391c0.34967-0.13293,0.74258-0.52261,0.87311-0.86591     c0.13052-0.34326,0.49304-0.72141,0.80566-0.84027c0.31256-0.11887,0.72659-0.40677,0.92001-0.63983     c0.61041-0.7355,4.2626-3.48132,5.28931-3.97662c0.5415-0.26123,1.483-0.75931,2.09219-1.10675     c0.60916-0.34747,1.66144-0.77457,2.33832-0.94904c0.67688-0.17456,1.35541-0.41302,1.50784-0.53006     c0.15244-0.11691,1.177-0.34393,2.27679-0.50418c2.02383-0.29498,5.27426-0.03867,6.35367,0.50107     c0.24512,0.12259,1.31213,0.62918,2.37112,1.12585c3.56607,1.67249,5.77063,4.49963,5.52246,7.08218     c-0.09665,1.00558-0.28647,1.39584-1.06882,2.19705c-1.20386,1.23288-2.34885,1.56598-4.20413,1.22299     c-0.75955-0.14032-1.51413-0.36581-1.67694-0.50092c-0.62106-0.51547-4.13229-1.48138-5.36685-1.47641     c-1.7247,0.00742-4.18106,0.91046-6.06915,2.23233c-0.85266,0.59695-1.74164,1.19781-1.97549,1.3353     c-1.2912,0.75891-4.32928,4.60037-5.32236,6.7298c-1.32004,2.83044-2.07001,4.78262-2.0722,5.39377     c0,0.23407-0.17099,0.75079-0.37811,1.14801c-0.20715,0.39725-0.32587,0.85446-0.26385,1.01611     c0.06201,0.16174,0.01355,0.39307-0.10764,0.51425c-0.12122,0.12134-0.40289,1.43619-0.62592,2.92215     s-0.4563,2.86789-0.51837,3.07095s-0.09927,2.04886-0.08261,4.10172c0.01917,2.3584-0.06433,3.79095-0.22659,3.89124     c-0.16388,0.1012-0.25888,1.91211-0.2626,5.00543c-0.00861,7.13104-0.30676,10.40576-1.06454,11.69092     c-1.50732,2.55637-3.64322,3.41595-6.17981,2.48718L330.32031,452.49216z M402.57828,452.59772     c-0.8652-0.12378-2.14969-0.49771-2.85437-0.83112c-0.70471-0.33337-1.39667-0.60614-1.5376-0.60614     c-0.49939,0-2.91907-1.8038-4.57916-3.4137c-2.68597-2.60468-4.75717-6.11908-5.67633-9.63171     c-0.23029-0.87994-0.51999-1.82147-0.6438-2.09222c-0.34879-0.76273-0.95502-4.04282-1.1196-6.05798     c-0.0817-1.00021-0.21585-1.98462-0.29813-2.18771c-0.21863-0.53958-0.26587-5.24893-0.05554-5.53815     c0.09845-0.13535,0.24509-1.13226,0.32581-2.21524c0.15463-2.07391,0.83307-5.73599,1.14001-6.1535     c0.09949-0.13535,0.32724-0.79993,0.5061-1.47684c0.30634-1.15955,1.70074-4.48334,2.22006-5.29199     c0.13037-0.20309,0.50363-0.89386,0.82944-1.53513c1.55142-3.05356,5.42007-6.72595,7.84363-7.44568     c1.62808-0.48346,2.54553-0.45963,3.72168,0.09677c1.10748,0.5239,1.62778,1.5137,1.62778,3.09677     c0,1.09167-0.83444,3.3259-1.24219,3.3259c-0.12906,0-0.24335,0.13858-0.25397,0.30768     c-0.01062,0.16934-0.34055,0.80609-0.73309,1.41528c-0.39258,0.60919-0.9888,1.66147-1.32492,2.33832     c-0.33618,0.67688-0.83011,1.61838-1.09769,2.09222c-0.88379,1.56506-1.72375,3.54779-2.13763,5.04587     c-0.22437,0.81226-0.49268,1.58762-0.59622,1.72296c-1.01831,1.33167-1.03174,13.06653-0.01648,14.52225     c0.09439,0.13535,0.31354,0.85535,0.48694,1.59988c0.48801,2.09506,0.81424,2.96292,1.67892,4.46625     c0.90262,1.56924,3.00089,3.58423,3.97388,3.8161c0.35596,0.08493,0.80255,0.27747,0.99246,0.42798     c0.46152,0.36591,4.46432,0.35208,5.21579-0.01724c0.32584-0.16046,1.12738-0.5181,1.78119-0.79474     c0.65378-0.27667,1.61124-0.83768,2.12759-1.24661c0.51639-0.40897,1.03369-0.74713,1.1496-0.7514     c0.27066-0.00986,1.7818-1.526,2.14664-2.15347c0.15359-0.26422,0.79269-1.24286,1.42014-2.17474     c0.62744-0.93195,1.22418-1.97128,1.32614-2.30975c0.1019-0.33844,0.43875-1.17172,0.74844-1.85175     c0.62442-1.37097,1.3382-4.19101,1.3382-5.28705c0-0.38974,0.11075-0.77707,0.24612-0.86075     c0.30399-0.18777,0.33713-8.1604,0.03473-8.34732c-0.11646-0.0719-0.2807-0.7153-0.36539-1.42984     c-0.15088-1.27338-0.75632-3.89191-1.06873-4.62204c-0.08688-0.20306-0.17523-0.42459-0.19641-0.49225     c-0.02216-0.06769-0.3295-0.73227-0.68536-1.47687c-1.20209-2.51508-2.1839-4.05621-3.33832-5.24033     c-1.1232-1.15204-3.32938-2.38998-4.25931-2.38998c-0.25623,0-0.6582-0.09918-0.89328-0.22028s-1.20276-0.33701-2.15039-0.47977     c-1.54437-0.2326-1.81866-0.36194-2.646-1.24713c-0.78555-0.84042-0.92303-1.15366-0.92303-2.10297     c0-0.61353,0.18103-1.53336,0.40228-2.04407c0.48416-1.11755,2.49243-2.67444,3.90182-3.02487     c0.54333-0.13513,1.18024-0.35382,1.41528-0.48611c0.51929-0.29214,3.80048-0.3222,3.97711-0.03644     c0.06943,0.11224,0.75049,0.35385,1.51358,0.53693c0.76309,0.18314,1.87973,0.64502,2.48141,1.02661     s1.19171,0.69382,1.31116,0.69382c0.33517,0,4.19626,3.70596,4.19626,4.02768c0,0.15656,0.2215,0.42279,0.49225,0.59189     c0.27078,0.16907,0.49228,0.43011,0.49228,0.58005c0,0.14987,0.37201,0.78586,0.82663,1.41318     c0.72513,1.00055,2.30194,4.07272,3.42792,6.67874c0.2048,0.47385,0.5607,1.69223,0.79099,2.70755     c0.23038,1.01535,0.57632,2.42548,0.76889,3.13367c0.60873,2.23859,0.86447,7.33795,0.58072,11.57855     c-0.14227,2.12497-0.35684,3.96188-0.47699,4.08206c-0.12009,0.12012-0.15701,0.37857-0.08197,0.57428     c0.0751,0.19568,0.01724,0.5976-0.13141,0.89307c-0.14746,0.29547-0.45062,1.31253-0.67383,2.26016     c-0.22324,0.94763-0.54245,1.94449-0.70947,2.21524c-0.16711,0.27075-0.50903,1.04611-0.76001,1.72296     c-0.64749,1.74628-1.90814,4.04459-3.20383,5.84088c-0.61224,0.84885-1.37448,1.93784-1.69379,2.42004     c-0.60849,0.91879-2.68179,2.88516-3.97717,3.77206c-2.36606,1.6199-4.31769,2.85852-4.50412,2.85852     c-0.11719,0-0.86368,0.28946-1.65894,0.64325c-2.681,1.19275-6.96719,1.6019-10.89548,1.04013L402.57828,452.59772z      M686.47369,452.51105c-0.40607-0.20309-1.20099-0.88248-1.76636-1.50949c-1.54071-1.70874-1.91638-3.51453-1.72839-8.30884     c0.16174-4.1254,0.80273-9.87561,1.17664-10.556c0.13318-0.24222,0.34637-4.17422,0.474-8.73798     c0.23682-8.46622,0.604-14.06216,0.98077-14.94348c0.11572-0.27075,0.33514-2.2645,0.48755-4.43054     c0.51288-7.28976,0.71082-8.7807,1.27509-9.60416c0.73932-1.07898,2.01141-1.84137,3.07251-1.84137     c0.94592,0,3.29529,1.01392,3.82318,1.64996c0.9516,1.14658,1.63092,2.75165,1.81036,4.27762     c0.08643,0.73346,0.21979,1.49969,0.29675,1.70273c0.07678,0.20309,0.11542,0.61844,0.08563,0.92303     s0.07855,0.55383,0.24097,0.55383c0.16223,0,1.70166-1.36279,3.4209-3.02844c1.71918-1.66562,3.54175-3.22586,4.05017-3.4671     c0.50842-0.24121,1.32257-0.70886,1.80927-1.03909c0.48663-0.33026,1.1698-0.66772,1.51813-0.74994     s1.13177-0.38351,1.74097-0.66946c0.94897-0.44553,1.56598-0.52017,4.30743-0.52115h3.19983l2.21521,1.10159     c1.86218,0.92606,2.60858,1.495,4.68256,3.56903c1.56598,1.56607,2.71912,2.96194,3.15668,3.8212     c0.37921,0.74457,1.0567,2.04602,1.50549,2.89215c0.44879,0.8461,0.77026,1.53836,0.71429,1.53836     c-0.05591,0,0.05341,0.24924,0.24292,0.55383s0.54266,1.32913,0.78479,2.27679c0.24219,0.94763,0.52673,1.8381,0.63263,1.97876     c0.1059,0.14078,0.42468,1.69135,0.70831,3.44592c0.28369,1.75461,0.61261,3.36777,0.7309,3.58478     c0.11841,0.21707,0.29541,0.93698,0.39368,1.59988c0.09821,0.66293,0.35187,1.64838,0.56378,2.18988     c0.32855,0.83966,0.39838,2.95676,0.47443,14.38254c0.08221,12.33591,0.05518,13.47729-0.34167,14.3992     c-1.37677,3.19897-4.93634,4.0675-7.39227,1.80371c-0.58972-0.54355-1.0722-1.09592-1.0722-1.22739     s-0.15601-0.58817-0.34668-1.0148c-0.26727-0.59781-0.37683-2.72235-0.47797-9.26743     c-0.12433-8.0386-0.69141-16.52652-1.14313-17.10669c-0.10535-0.13538-0.43201-1.74146-0.72583-3.56903     s-0.64581-3.55054-0.78229-3.8288c-0.13635-0.27829-0.22327-0.61057-0.19299-0.73843     c0.03027-0.12799-0.00983-0.39865-0.08783-0.60172c-0.0788-0.20309-0.2749-0.97842-0.43597-1.72299     c-0.16125-0.74457-0.44928-1.60297-0.6402-1.90756c-0.19104-0.3046-0.29816-0.55383-0.23828-0.55383     c0.33496,0-2.43188-4.86301-3.28125-5.76706c-0.79169-0.84274-3.15485-1.96838-3.53284-1.68277     c-0.16412,0.12405-0.79694,0.36777-1.40613,0.54147c-0.60919,0.17377-1.60608,0.6814-2.21527,1.1282     c-1.57928,1.15833-5.66119,5.39731-5.66119,5.87906c0,0.08295-0.58459,1.00845-1.29913,2.05667     c-1.15417,1.69315-1.97217,3.23639-4.01074,7.56699c-0.31866,0.67688-0.75659,1.86456-0.97314,2.63928     c-0.21661,0.77469-0.54736,1.71643-0.73505,2.09268c-0.18781,0.37625-0.46082,1.45923-0.60693,2.40659     c-0.28094,1.82233-0.71918,8.97046-0.71912,11.73053c0.00006,0.90158-0.11615,1.71118-0.25842,1.79901     c-0.14227,0.08789-0.26154,0.90088-0.2652,1.80667c-0.00983,2.14905-0.3924,5.83713-0.72632,6.98062     c-0.37573,1.28674-2.28815,3.33142-3.40637,3.642c-1.31232,0.3645-3.25342,0.30878-4.10632-0.11789L686.47369,452.51105z      M501.63019,452.37494c-0.67276-0.11249-1.44812-0.30545-1.72296-0.42883c-0.2749-0.12332-1.15109-0.42892-1.94708-0.67886     c-3.48444-1.09433-6.39969-3.88898-8.32773-7.98318c-1.8447-3.9173-1.91629-8.9993-0.16736-11.87991     c0.39163-0.64508,0.7121-1.26541,0.7121-1.37848c0-0.11325,0.58151-0.5799,1.29224-1.03732     c1.10184-0.70911,1.5126-0.83243,2.7879-0.83676c1.30853-0.00491,1.60446,0.0874,2.36481,0.73337     c0.478,0.4061,0.99774,0.93411,1.15494,1.17322c0.41205,0.62686,0.99731,3.60837,0.73953,3.76767     c-0.11935,0.07361-0.21686,1.14233-0.21686,2.37473c0,2.08374,0.05316,2.32364,0.75955,3.42447     c0.8848,1.37878,1.92349,2.09381,3.38007,2.32669c0.57214,0.09158,1.09967,0.26257,1.17233,0.38019     c0.18536,0.30008,5.20825,0.26999,5.39511-0.03229c0.08368-0.13535,0.46567-0.24615,0.84891-0.24615     c0.93878,0,5.43826-0.93588,5.77469-1.20114c0.14746-0.11642,0.66577-0.33939,1.15167-0.49576     c1.18213-0.38034,2.36798-1.28336,3.10004-2.36069c0.86597-1.27435,0.84808-3.50583-0.04083-5.09625     c-1.04059-1.86182-3.45984-3.9267-6.1123-5.21689c-1.28455-0.62485-2.40872-1.13608-2.49808-1.13608     s-0.73706-0.26898-1.43939-0.59778c-0.70239-0.32877-1.99698-0.83728-2.87692-1.13s-1.71069-0.61603-1.84604-0.71844     c-0.13535-0.10239-0.85535-0.37976-1.59988-0.61633c-1.48587-0.47205-5.43088-2.37808-7.07248-3.41705     c-1.53656-0.97247-4.3497-3.71005-5.24304-5.10223c-0.42899-0.66855-0.87949-1.15405-1.0011-1.07889     c-0.12158,0.07507-0.22104-0.0874-0.22104-0.36105c0-0.27374-0.23779-1.08328-0.52853-1.79904     c-0.7507-1.84842-0.74585-5.48026,0.00986-8.19327c0.30212-1.08301,0.65289-2.07431,0.7796-2.20294     c0.12674-0.12875,0.23038-0.43793,0.23038-0.68741c0-1.28064,4.20294-5.57294,6.69003-6.83231     c0.85562-0.43323,1.67303-0.88345,1.81653-1.00043c0.35196-0.28699,4.37854-1.21466,5.27228-1.21466     c0.39288,0,0.78284-0.11078,0.86652-0.24615c0.08762-0.14178,1.39249-0.24615,3.07672-0.24615     c1.68427,0,2.98917,0.10437,3.07675,0.24615c0.08368,0.13535,0.51306,0.24615,0.95419,0.24615     c2.73151,0,5.94086,1.63165,8.54968,4.34677c2.77399,2.88699,3.83063,5.25543,3.60394,8.0788     c-0.13635,1.69775-0.4566,2.35217-1.43396,2.92947c-1.1272,0.66586-2.49023,0.51511-3.63501-0.40207     c-0.54913-0.43997-1.00415-0.89041-1.01117-1.00098c-0.0426-0.67377-1.48309-1.96155-3.0462-2.72333     c-1.99432-0.97192-4.04416-1.37851-6.96307-1.38126c-4.76981-0.00491-7.94058,1.49542-8.83142,4.1774     c-0.67661,2.03711-0.11472,3.81592,1.65591,5.24207c0.90067,0.72543,4.98016,2.88565,5.4494,2.88565     c0.08762,0,0.629,0.2171,1.20288,0.48221c0.57388,0.2652,1.87415,0.75131,2.88943,1.08023     c1.01535,0.32892,2.17834,0.7677,2.58447,0.97507c0.40613,0.20724,1.23688,0.56812,1.84607,0.8017     c1.21802,0.46701,4.23541,1.8808,4.43054,2.07593c0.06763,0.06766,0.56293,0.34457,1.10052,0.61533     c0.5376,0.27078,1.64337,1.04611,2.45728,1.72299c0.81384,0.67685,1.69464,1.34146,1.95728,1.47684     s0.65216,0.53262,0.86566,0.88269c0.21338,0.35013,0.92896,1.34698,1.58997,2.21524     c0.66101,0.86832,1.33698,1.91101,1.50208,2.31714c0.16516,0.40613,0.39001,0.95996,0.49988,1.23071     c0.10974,0.27075,0.21088,0.54767,0.22467,0.61536c0.01477,0.06766,0.10095,0.24194,0.19348,0.38718     c0.27966,0.43857,0.68176,3.33121,0.68176,4.90482c0,1.70975-0.41956,4.54303-0.72766,4.91434     c-0.11615,0.14005-0.22571,0.33539-0.24371,0.43417c-0.15082,0.84052-1.47931,3.22153-2.39563,4.29407     c-2.79498,3.27161-7.00354,5.4162-12.50537,6.37262c-0.5415,0.09399-1.0957,0.25833-1.23145,0.36487     c-0.75183,0.58997-9.09299,0.91791-11.80649,0.4642L501.63019,452.37494z M376.70676,391.57758     c-0.20306-0.12897-0.77853-0.39822-1.27881-0.59857c-0.58057-0.2326-1.20386-0.78802-1.72299-1.53574     c-0.78934-1.13684-0.81335-1.24487-0.81335-3.65665c0-1.76199,0.09973-2.60532,0.34274-2.89807     c0.18854-0.2272,0.27255-0.48315,0.18674-0.56897c-0.08578-0.08591-0.06177-0.27695,0.05347-0.42477     c0.1152-0.14795,0.47424-1.13873,0.79782-2.202c0.63339-2.08127,1.68402-3.5777,2.9838-4.24985     c1.03366-0.53452,2.70685-0.2594,3.65369,0.6008c0.88498,0.80399,1.78845,3.22937,1.72784,4.63837     c-0.02438,0.56387,0.07129,1.09653,0.21231,1.18365c0.33765,0.20871,0.33206,2.76114-0.00641,2.9704     c-0.14459,0.08936-0.23267,0.51282-0.19577,0.9411c0.0369,0.42825,0,0.88779-0.08142,1.02124     c-0.0817,0.13339-0.27634,0.71915-0.43256,1.30164c-0.33377,1.24432-1.8829,2.91968-2.89786,3.13391     c-0.37573,0.07925-0.87549,0.24826-1.11053,0.37546c-0.52478,0.28394-0.93542,0.27472-1.41867-0.03198L376.70676,391.57758z      M671.95148,389.25461c-0.13538-0.04306-0.55353-0.14621-0.9292-0.22913c-0.94519-0.20871-2.62616-1.78552-3.16516-2.96896     c-0.50769-1.11478-0.64569-5.50635-0.21979-6.99158c0.77759-2.71118,3.35913-4.35721,6.04364-3.85358     c1.65729,0.31088,4.05481,3.07065,4.05481,4.66733c0,0.33585,0.11078,0.67908,0.24615,0.76276     c0.30725,0.18979,0.3244,2.44125,0.02216,3.01855c-0.12256,0.23508-0.35504,0.92584-0.51624,1.53503     c-0.35999,1.36002-1.12122,2.40079-2.37134,3.24216c-0.8623,0.58035-2.54492,1.01477-3.16583,0.81738L671.95148,389.25461z" />
</svg>